<svg xmlns="http://www.w3.org/2000/svg" xmlns:xlink="http://www.w3.org/1999/xlink" width="1920" zoomAndPan="magnify" viewBox="0 0 1440 809.999993" height="1080" preserveAspectRatio="xMidYMid meet" version="1.0"><path fill="#fed766" d="M 400.980469 575.21875 C 421.027344 566.859375 444.675781 575.25 459.613281 592.613281 C 448.238281 571.511719 436.628906 545.078125 447.113281 523.382812 C 450.582031 516.203125 456.175781 510.589844 462.320312 506.324219 C 491.054688 486.386719 533.351562 499.011719 549.792969 532.433594 C 538.3125 507.785156 528.855469 480.535156 530.996094 452.742188 C 533.238281 423.628906 548.234375 397.238281 567.601562 378.050781 C 610.167969 335.882812 675.753906 326.902344 725.890625 356.371094 C 758.019531 375.253906 784.296875 411.5 785.375 452.632812 C 784.152344 442.363281 790.03125 432.171875 797.996094 427.148438 C 805.960938 422.125 815.550781 421.507812 824.582031 422.832031 C 844.828125 425.789062 864.199219 438.621094 874.878906 458.421875 C 885.554688 478.222656 886.570312 504.855469 875.855469 524.628906 C 887.09375 521.9375 898.570312 519.234375 909.972656 520.765625 C 921.375 522.292969 932.898438 528.832031 938.199219 540.425781 C 945.636719 556.703125 938.863281 576.457031 931.203125 592.597656 C 945.230469 579.261719 965.160156 574.433594 982.746094 580.105469 C 1000.332031 585.78125 1014.027344 602.191406 1019.820312 621.921875 C 1019.820312 621.921875 915.820312 621.921875 915.820312 621.921875 C 915.820312 621.921875 689.261719 621.921875 689.261719 621.921875 C 689.261719 621.921875 467.921875 621.921875 467.921875 621.921875 C 467.921875 621.921875 402.535156 621.921875 402.535156 621.921875 C 396.621094 621.921875 390.683594 622.101562 384.769531 621.921875 C 373.867188 621.585938 370.390625 620.179688 374.363281 606.648438 C 378.515625 592.507812 388.664062 580.351562 400.980469 575.21875 Z M 400.980469 575.21875 " fill-opacity="1" fill-rule="nonzero"/><path fill="#fed766" d="M 996.574219 239.183594 C 981.105469 215.5 946.667969 214.832031 930.101562 237.886719 C 921.191406 250.300781 919.890625 266.019531 926.011719 279.761719 C 926.011719 279.761719 951.011719 335.921875 951.011719 335.921875 C 953.460938 341.421875 961.085938 341.882812 964.183594 336.726562 C 964.183594 336.726562 997.027344 282.070312 997.027344 282.070312 C 1005.078125 268.679688 1005.140625 252.304688 996.574219 239.183594 Z M 962.636719 285.675781 C 951.1875 285.675781 941.910156 276.394531 941.910156 264.945312 C 941.910156 253.496094 951.1875 244.21875 962.636719 244.21875 C 974.085938 244.21875 983.367188 253.496094 983.367188 264.945312 C 983.367188 276.394531 974.085938 285.675781 962.636719 285.675781 Z M 962.636719 285.675781 " fill-opacity="1" fill-rule="nonzero"/><path stroke-linecap="butt" transform="matrix(0.642871, 0, 0, 0.642871, 796.840406, 308.980874)" fill-opacity="1" fill="#f7f3eb" fill-rule="nonzero" stroke-linejoin="miter" d="M 23.830206 -30.533823 C 31.826561 -30.868017 40.649286 -30.521671 46.585789 -24.670235 C 49.879121 -21.425513 51.847828 -16.807558 52.789648 -12.074154 C 53.731468 -7.334673 53.725392 -2.443286 53.59779 2.405567 C 53.433731 8.8464 52.990165 15.542436 50.067485 21.144745 C 47.138729 26.740978 41.019938 30.866756 35.338637 29.098565 C 29.669489 27.336451 26.588827 20.755864 24.699111 14.655302 C 22.815471 8.55474 21.180958 1.810094 16.490087 -2.096939 C 12.072648 -5.773075 5.406994 -5.809532 0.959174 -2.169854 C -2.419225 0.588766 -4.42439 5.048739 -7.93039 7.618996 C -10.913833 9.812525 -14.626426 10.377617 -18.193189 10.881946 C -29.981128 12.565069 -41.769067 14.242116 -53.557006 15.919163 C -53.733218 15.943469 -51.041436 -5.080382 -50.622174 -6.994403 C -49.978091 -9.977845 -49.570981 -14.462123 -47.821019 -16.941236 C -46.623997 -18.636511 -44.655289 -18.770189 -42.86887 -19.262366 C -28.923859 -23.090408 -15.015306 -26.450578 -0.723949 -28.370675 C 7.430388 -29.464402 15.621183 -30.187476 23.830206 -30.533823 Z M 23.830206 -30.533823 " stroke="#000000" stroke-width="3" stroke-opacity="1" stroke-miterlimit="10"/><path stroke-linecap="butt" transform="matrix(0.642871, 0, 0, 0.642871, 715.640586, 305.048443)" fill-opacity="1" fill="#f7f3eb" fill-rule="nonzero" stroke-linejoin="miter" d="M 95.366918 19.283601 C 95.366918 19.283601 -25.629593 47.89062 -25.629593 47.89062 C -29.111288 48.710915 -32.74489 48.078984 -35.8134 46.12243 C -35.8134 46.12243 -95.366797 8.133669 -95.366797 8.133669 C -95.366797 8.133669 -80.242993 -48.709717 -80.242993 -48.709717 C -80.242993 -48.709717 -25.969863 -1.746325 -25.969863 -1.746325 C 9.229895 -13.036011 51.49634 -16.189588 92.827042 -15.642725 " stroke="#000000" stroke-width="3" stroke-opacity="1" stroke-miterlimit="10"/><path stroke-linecap="butt" transform="matrix(0.642871, 0, 0, 0.642871, 648.91639, 211.664981)" fill-opacity="1" fill="#000000" fill-rule="nonzero" stroke-linejoin="miter" d="M 51.437974 -63.048673 C 58.334526 -48.550723 58.595805 -30.583231 52.09421 -16.960262 C 48.873793 -10.203464 43.945949 -3.057785 46.309613 4.604375 C 48.503142 11.70752 55.904023 15.061614 59.568006 21.417379 C 62.600058 26.685494 62.654745 33.466597 60.929088 39.087135 C 59.197354 44.707673 55.904023 49.392467 52.543853 53.834211 C 39.911314 70.543918 25.522737 85.46113 9.742697 98.22127 C 3.733278 103.0762 -2.999215 107.785299 -10.612765 107.299198 C -21.294825 106.618658 -29.983873 96.09458 -36.327486 85.722409 C -49.683099 63.890417 -58.8704 38.540272 -60.760116 12.728331 C -62.655908 -13.08361 -56.913845 -39.290507 -43.248343 -58.582624 C -22.740974 -87.529914 30.134616 -107.782079 51.437974 -63.048673 Z M 51.437974 -63.048673 " stroke="#000000" stroke-width="3" stroke-opacity="1" stroke-miterlimit="10"/><path stroke-linecap="butt" transform="matrix(0.642871, 0, 0, 0.642871, 608.870016, 205.965934)" fill-opacity="1" fill="#000000" fill-rule="nonzero" stroke-linejoin="miter" d="M -4.780337 -43.647451 C -3.893204 -40.238671 -2.562503 -36.605069 -3.795984 -33.305661 C -5.6857 -28.22591 -12.132609 -27.053193 -17.400724 -25.783255 C -26.824999 -23.510735 -35.550504 -18.43706 -42.185777 -11.376449 C -47.204765 -6.041495 -51.184714 1.371539 -49.197778 8.426073 C -47.435663 14.672466 -41.262186 19.612463 -41.620685 26.095829 C -41.997413 32.968076 -49.337532 37.051321 -52.965057 42.908833 C -57.090836 49.556259 -56.027491 58.524814 -51.877407 65.166163 C -47.721247 71.801436 -40.970525 76.413316 -33.922067 79.809943 C -18.087341 87.447799 0.584998 89.756777 17.349392 84.482585 C 34.113785 79.208394 48.550972 65.925696 53.594266 49.088387 C 57.09419 37.428049 56.097684 24.959569 54.997881 12.83136 C 52.84081 -11.054407 50.361697 -35.219682 42.140521 -57.750444 C 39.631027 -64.622691 36.550364 -71.379489 31.993171 -77.103323 C 28.851746 -81.052891 24.962942 -84.498128 20.454359 -86.819259 C 14.75483 -89.754091 12.379013 -88.654288 7.77321 -84.467747 C 0.767286 -78.09983 -3.905356 -69.240647 -5.442649 -59.919668 C -6.329783 -54.523952 -6.165724 -48.945947 -4.780337 -43.647451 Z M -4.780337 -43.647451 " stroke="#000000" stroke-width="3" stroke-opacity="1" stroke-miterlimit="10"/><path stroke-linecap="butt" transform="matrix(0.642871, 0, 0, 0.642871, 506.838677, 405.900144)" fill-opacity="1" fill="#fed766" fill-rule="nonzero" stroke-linejoin="miter" d="M 81.198841 75.124191 C 81.198841 75.124191 -81.201286 75.124191 -81.201286 75.124191 C -81.201286 75.124191 -81.201286 -75.123422 -81.201286 -75.123422 C -81.201286 -75.123422 81.198841 -75.123422 81.198841 -75.123422 C 81.198841 -75.123422 81.198841 75.124191 81.198841 75.124191 Z M 81.198841 75.124191 " stroke="#000000" stroke-width="3" stroke-opacity="1" stroke-miterlimit="10"/><path stroke-linecap="butt" transform="matrix(0.642871, 0, 0, 0.642871, 506.829653, 358.502522)" fill-opacity="1" fill="#fed766" fill-rule="nonzero" stroke-linejoin="miter" d="M 85.168521 10.811815 C 85.168521 10.811815 -85.167198 10.811815 -85.167198 10.811815 C -85.167198 10.811815 -85.167198 -10.813585 -85.167198 -10.813585 C -85.167198 -10.813585 85.168521 -10.813585 85.168521 -10.813585 C 85.168521 -10.813585 85.168521 10.811815 85.168521 10.811815 Z M 85.168521 10.811815 " stroke="#000000" stroke-width="3" stroke-opacity="1" stroke-miterlimit="10"/><path stroke-linecap="butt" transform="matrix(0.642871, 0, 0, 0.642871, 505.066277, 409.824863)" fill-opacity="1" fill="#f4f4f4" fill-rule="nonzero" stroke-linejoin="miter" d="M -45.596033 -69.021209 C -45.596033 -69.021209 -12.522965 -3.069513 -12.522965 -3.069513 C -12.522965 -3.069513 -10.475266 69.019203 -10.475266 69.019203 C -10.475266 69.019203 13.021621 69.019203 13.021621 69.019203 C 13.021621 69.019203 13.021621 -2.133769 13.021621 -2.133769 C 13.021621 -2.133769 45.596436 -69.021209 45.596436 -69.021209 C 45.596436 -69.021209 19.90602 -69.021209 19.90602 -69.021209 C 19.90602 -69.021209 -1.26366 -22.313019 -1.26366 -22.313019 C -1.26366 -22.313019 -21.649503 -69.021209 -21.649503 -69.021209 C -21.649503 -69.021209 -45.596033 -69.021209 -45.596033 -69.021209 Z M -45.596033 -69.021209 " stroke="#000000" stroke-width="3" stroke-opacity="1" stroke-miterlimit="10"/><path stroke-linecap="butt" transform="matrix(0.642871, 0, 0, 0.642871, 505.439741, 457.755405)" fill-opacity="1" fill="#f4f4f4" fill-rule="nonzero" stroke-linejoin="miter" d="M 80.865422 5.539215 C 80.865422 5.539215 -80.866317 5.539215 -80.866317 5.539215 C -83.795073 5.539215 -86.170889 3.163399 -86.170889 0.234643 C -86.170889 0.234643 -86.170889 -0.233229 -86.170889 -0.233229 C -86.170889 -3.161985 -83.795073 -5.537802 -80.866317 -5.537802 C -80.866317 -5.537802 80.865422 -5.537802 80.865422 -5.537802 C 83.794178 -5.537802 86.169994 -3.161985 86.169994 -0.233229 C 86.169994 -0.233229 86.169994 0.234643 86.169994 0.234643 C 86.169994 3.163399 83.794178 5.539215 80.865422 5.539215 Z M 80.865422 5.539215 " stroke="#000000" stroke-width="3" stroke-opacity="1" stroke-miterlimit="10"/><path stroke-linecap="butt" transform="matrix(0.642871, 0, 0, 0.642871, 522.59542, 495.000115)" fill-opacity="1" fill="#f4f4f4" fill-rule="nonzero" stroke-linejoin="miter" d="M 53.261873 61.096587 C 53.261873 61.096587 -61.093288 -53.26465 -61.093288 -53.26465 C -63.165292 -55.336654 -63.165292 -58.696824 -61.093288 -60.768828 C -61.093288 -60.768828 -60.76517 -61.096946 -60.76517 -61.096946 C -58.693166 -63.168949 -55.332996 -63.168949 -53.260992 -61.096946 C -53.260992 -61.096946 61.094169 53.264292 61.094169 53.264292 C 63.166173 55.336296 63.166173 58.696466 61.094169 60.76847 C 61.094169 60.76847 60.766051 61.096587 60.766051 61.096587 C 58.694047 63.168591 55.333877 63.168591 53.261873 61.096587 Z M 53.261873 61.096587 " stroke="#000000" stroke-width="3" stroke-opacity="1" stroke-miterlimit="10"/><path stroke-linecap="butt" transform="matrix(0.642871, 0, 0, 0.642871, 683.453996, 434.046334)" fill-opacity="1" fill="#f4f4f4" fill-rule="nonzero" stroke-linejoin="miter" d="M 309.298367 -110.963768 C 298.658841 -110.94554 289.659904 -115.223225 281.973439 -122.921843 C 289.988022 -19.813834 282.963869 85.098824 267.299277 191.050521 C 75.277396 216.145464 -114.077008 226.256356 -300.454046 219.548168 C -308.085825 184.7859 -309.307153 151.645993 -299.585141 121.246478 C -294.092205 104.038518 -285.099344 87.717691 -271.786264 72.484514 C -256.115597 54.565631 -234.478045 38.135432 -205.524679 23.558491 C -205.524679 23.558491 -35.164655 46.071024 -35.164655 46.071024 C -55.191999 95.580368 -9.395248 126.417373 53.852513 115.832533 C 57.303827 115.261365 60.700455 114.331697 63.993787 113.134675 C 167.059262 75.522642 215.438422 -39.349001 232.08129 -215.305258 C 232.08129 -215.305258 249.678131 -218.282624 249.678131 -218.282624 C 259.120635 -219.880679 268.763655 -216.909389 275.666284 -210.26804 C 275.666284 -210.26804 276.298214 -209.660415 276.298214 -209.660415 C 287.830951 -220.70705 298.914044 -226.254673 309.304444 -223.593272 C 289.204185 -180.974404 294.004428 -144.650538 309.298367 -110.963768 Z M 309.298367 -110.963768 " stroke="#000000" stroke-width="3" stroke-opacity="1" stroke-miterlimit="10"/><path stroke-linecap="round" transform="matrix(0.642871, 0, 0, 0.642871, 505.215389, 496.438891)" fill-opacity="1" fill="#fed766" fill-rule="nonzero" stroke-linejoin="round" d="M 19.953581 -1.588067 C 17.450163 7.404794 12.036218 14.094753 4.319371 18.973988 C -1.720429 22.789877 -8.823573 24.564144 -15.957099 24.363628 C -15.957099 24.363628 -21.741696 24.193493 -21.741696 24.193493 C -16.242683 6.985532 -7.249823 -9.335295 6.063257 -24.568472 C 6.063257 -24.568472 13.895552 -18.850714 13.895552 -18.850714 C 19.291269 -14.907223 21.740001 -8.0289 19.953581 -1.588067 Z M 19.953581 -1.588067 " stroke="#000000" stroke-width="3" stroke-opacity="1" stroke-miterlimit="4"/><path stroke-linecap="round" transform="matrix(0.642871, 0, 0, 0.642871, 882.863626, 326.508109)" fill-opacity="1" fill="#fed766" fill-rule="nonzero" stroke-linejoin="round" d="M -0.662848 -56.315214 C 19.230818 -21.291667 13.421916 16.988754 -0.675001 56.314291 C -17.433318 16.283908 -19.23189 -21.528641 -0.662848 -56.315214 Z M -0.662848 -56.315214 " stroke="#000000" stroke-width="3" stroke-opacity="1" stroke-miterlimit="4"/><path stroke-linecap="butt" transform="matrix(0.642871, 0, 0, 0.642871, 595.930296, 452.091717)" fill-opacity="1" fill="#f4f4f4" fill-rule="nonzero" stroke-linejoin="miter" d="M 101.272032 18.790949 C 101.272032 18.790949 -101.273926 18.790949 -101.273926 18.790949 C -111.214683 18.790949 -119.2718 10.733832 -119.2718 0.786999 C -119.2718 0.786999 -119.2718 -0.792828 -119.2718 -0.792828 C -119.2718 -10.733585 -111.214683 -18.790702 -101.273926 -18.790702 C -101.273926 -18.790702 101.272032 -18.790702 101.272032 -18.790702 C 111.212789 -18.790702 119.269906 -10.733585 119.269906 -0.792828 C 119.269906 -0.792828 119.269906 0.786999 119.269906 0.786999 C 119.269906 10.733832 111.212789 18.790949 101.272032 18.790949 Z M 101.272032 18.790949 " stroke="#000000" stroke-width="3" stroke-opacity="1" stroke-miterlimit="10"/><path stroke-linecap="butt" transform="matrix(0.642871, 0, 0, 0.642871, 817.541461, 566.994591)" fill-opacity="1" fill="#000000" fill-rule="nonzero" stroke-linejoin="miter" d="M 87.433611 0.00233682 C 87.433611 48.290353 48.290361 87.433602 0.00234519 87.433602 C -48.291747 87.433602 -87.434996 48.290353 -87.434996 0.00233682 C -87.434996 -48.291756 -48.291747 -87.435005 0.00234519 -87.435005 C 48.290361 -87.435005 87.433611 -48.291756 87.433611 0.00233682 Z M 87.433611 0.00233682 " stroke="#000000" stroke-width="3" stroke-opacity="1" stroke-miterlimit="10"/><path stroke-linecap="butt" transform="matrix(0.642871, 0, 0, 0.642871, 817.541461, 566.994591)" fill-opacity="1" fill="#f4f4f4" fill-rule="nonzero" stroke-linejoin="miter" d="M 38.197698 0.00233682 C 38.197698 21.093026 21.093034 38.19769 0.00234519 38.19769 C -21.09442 38.19769 -38.199084 21.093026 -38.199084 0.00233682 C -38.199084 -21.094428 -21.09442 -38.199092 0.00234519 -38.199092 C 21.093034 -38.199092 38.197698 -21.094428 38.197698 0.00233682 Z M 38.197698 0.00233682 " stroke="#000000" stroke-width="3" stroke-opacity="1" stroke-miterlimit="10"/><path stroke-linecap="butt" transform="matrix(0.642871, 0, 0, 0.642871, 817.909189, 566.170432)" fill-opacity="1" fill="#ffffff" fill-rule="nonzero" stroke-linejoin="miter" d="M 0.00150446 -21.93912 C 12.166171 -21.93912 22.046166 -12.107735 22.046166 0.00224537 C 22.046166 12.10615 12.166171 21.937534 0.00150446 21.937534 C -12.169239 21.937534 -22.049233 12.10615 -22.049233 0.00224537 C -22.049233 -12.107735 -12.169239 -21.93912 0.00150446 -21.93912 Z M 0.00150446 -21.93912 " stroke="#000000" stroke-width="4" stroke-opacity="1" stroke-miterlimit="4"/><path stroke-linecap="butt" transform="matrix(0.642871, 0, 0, 0.642871, 817.541461, 529.515161)" fill-opacity="1" fill="#f4f4f4" fill-rule="nonzero" stroke-linejoin="miter" d="M 94.202561 47.103867 C 94.202561 47.103867 -94.203947 47.103867 -94.203947 47.103867 C -94.203947 -4.927123 -52.028646 -47.102425 0.00234519 -47.102425 C 52.02726 -47.102425 94.202561 -4.927123 94.202561 47.103867 Z M 94.202561 47.103867 " stroke="#000000" stroke-width="3" stroke-opacity="1" stroke-miterlimit="10"/><path stroke-linecap="butt" transform="matrix(0.642871, 0, 0, 0.642871, 817.541461, 566.140192)" fill-opacity="1" fill="#f4f4f4" fill-rule="nonzero" stroke-linejoin="miter" d="M 92.015108 9.868516 C 92.015108 9.868516 -92.016494 9.868516 -92.016494 9.868516 C -96.184807 9.868516 -99.55713 6.490117 -99.55713 2.327881 C -99.55713 2.327881 -99.55713 -2.326532 -99.55713 -2.326532 C -99.55713 -6.494845 -96.184807 -9.867167 -92.016494 -9.867167 C -92.016494 -9.867167 92.015108 -9.867167 92.015108 -9.867167 C 96.183421 -9.867167 99.56182 -6.494845 99.56182 -2.326532 C 99.56182 -2.326532 99.56182 2.327881 99.56182 2.327881 C 99.56182 6.490117 96.183421 9.868516 92.015108 9.868516 Z M 92.015108 9.868516 " stroke="#000000" stroke-width="3" stroke-opacity="1" stroke-miterlimit="10"/><path stroke-linecap="butt" transform="matrix(0.642871, 0, 0, 0.642871, 567.543674, 581.070927)" fill-opacity="1" fill="#000000" fill-rule="nonzero" stroke-linejoin="miter" d="M 87.436245 -0.000955506 C 87.436245 48.287061 48.28692 87.436386 -0.00109652 87.436386 C -48.289113 87.436386 -87.432362 48.287061 -87.432362 -0.000955506 C -87.432362 -48.288972 -48.289113 -87.432221 -0.00109652 -87.432221 C 48.28692 -87.432221 87.436245 -48.288972 87.436245 -0.000955506 Z M 87.436245 -0.000955506 " stroke="#000000" stroke-width="3" stroke-opacity="1" stroke-miterlimit="10"/><path stroke-linecap="butt" transform="matrix(0.642871, 0, 0, 0.642871, 567.543674, 581.070927)" fill-opacity="1" fill="#f4f4f4" fill-rule="nonzero" stroke-linejoin="miter" d="M 38.200333 -0.000955506 C 38.200333 21.09581 21.095669 38.200474 -0.00109652 38.200474 C -21.097862 38.200474 -38.196449 21.09581 -38.196449 -0.000955506 C -38.196449 -21.097721 -21.097862 -38.196308 -0.00109652 -38.196308 C 21.095669 -38.196308 38.200333 -21.097721 38.200333 -0.000955506 Z M 38.200333 -0.000955506 " stroke="#000000" stroke-width="3" stroke-opacity="1" stroke-miterlimit="10"/><path stroke-linecap="butt" transform="matrix(0.642871, 0, 0, 0.642871, 567.510914, 580.635039)" fill-opacity="1" fill="#ffffff" fill-rule="nonzero" stroke-linejoin="miter" d="M 0.00125232 -21.938752 C 12.165919 -21.938752 22.045914 -12.107367 22.045914 0.00261322 C 22.045914 12.106518 12.165919 21.937902 0.00125232 21.937902 C -12.169491 21.937902 -22.049485 12.106518 -22.049485 0.00261322 C -22.049485 -12.107367 -12.169491 -21.938752 0.00125232 -21.938752 Z M 0.00125232 -21.938752 " stroke="#000000" stroke-width="4" stroke-opacity="1" stroke-miterlimit="4"/><path stroke-linecap="butt" transform="matrix(0.642871, 0, 0, 0.642871, 567.543674, 543.591497)" fill-opacity="1" fill="#f4f4f4" fill-rule="nonzero" stroke-linejoin="miter" d="M 94.205196 47.100575 C 94.205196 47.100575 -94.201312 47.100575 -94.201312 47.100575 C -94.201312 -4.924339 -52.026011 -47.099641 -0.00109652 -47.099641 C 52.029894 -47.099641 94.205196 -4.924339 94.205196 47.100575 Z M 94.205196 47.100575 " stroke="#000000" stroke-width="3" stroke-opacity="1" stroke-miterlimit="10"/><path stroke-linecap="butt" transform="matrix(0.642871, 0, 0, 0.642871, 567.543674, 580.217151)" fill-opacity="1" fill="#f4f4f4" fill-rule="nonzero" stroke-linejoin="miter" d="M 92.017743 9.870329 C 92.017743 9.870329 -92.01386 9.870329 -92.01386 9.870329 C -96.182172 9.870329 -99.560571 6.49193 -99.560571 2.323618 C -99.560571 2.323618 -99.560571 -2.324719 -99.560571 -2.324719 C -99.560571 -6.493031 -96.182172 -9.87143 -92.01386 -9.87143 C -92.01386 -9.87143 92.017743 -9.87143 92.017743 -9.87143 C 96.179979 -9.87143 99.558378 -6.493031 99.558378 -2.324719 C 99.558378 -2.324719 99.558378 2.323618 99.558378 2.323618 C 99.558378 6.49193 96.179979 9.870329 92.017743 9.870329 Z M 92.017743 9.870329 " stroke="#000000" stroke-width="3" stroke-opacity="1" stroke-miterlimit="10"/><path stroke-linecap="butt" transform="matrix(0.642871, 0, 0, 0.642871, 653.215869, 556.054216)" fill-opacity="1" fill="#f7f3eb" fill-rule="nonzero" stroke-linejoin="miter" d="M -29.0218 3.087472 C -29.981849 6.265355 -30.947973 9.680211 -29.969696 12.858094 C -29.155478 15.501266 -27.107779 17.567193 -24.999318 19.353613 C -18.479494 24.870854 -10.653274 28.832574 -2.347031 30.81951 C -0.360095 31.293458 1.821282 31.633729 3.650235 30.728366 C 5.126766 29.999215 6.111119 28.589524 7.040787 27.234518 C 15.00676 15.574181 22.97881 3.919919 30.950859 -7.740418 C 20.122969 -13.051067 9.301154 -18.361716 -1.52066 -23.672365 C -4.194213 -24.984836 -6.867766 -26.297308 -9.541319 -27.609779 C -11.637628 -28.636667 -15.283382 -31.431745 -17.574131 -31.559347 C -18.953442 -31.632262 -18.801535 -30.660061 -19.220797 -29.274674 C -19.67044 -27.792067 -20.120083 -26.30946 -20.569726 -24.826854 C -21.426478 -21.989242 -22.283231 -19.163782 -23.139983 -16.332246 C -25.102614 -9.861032 -27.059169 -3.383742 -29.0218 3.087472 Z M -29.0218 3.087472 " stroke="#000000" stroke-width="3" stroke-opacity="1" stroke-miterlimit="10"/><path stroke-linecap="butt" transform="matrix(0.642871, 0, 0, 0.642871, 688.047932, 417.900623)" fill-opacity="1" fill="#000000" fill-rule="nonzero" stroke-linejoin="miter" d="M -124.911264 12.939028 C -136.899719 26.063744 -148.50537 41.953157 -147.27189 59.683675 C -145.910809 79.176308 -128.344349 94.804442 -109.228444 98.887687 C -90.118615 102.970932 -70.152033 97.575215 -52.433667 89.323658 C -33.639804 80.579924 -16.516911 68.694765 0.508762 56.870368 C 0.508762 56.870368 121.991373 -27.534921 121.991373 -27.534921 C 128.650951 -32.158953 135.504969 -36.983501 139.764425 -43.886129 C 148.502083 -58.055961 143.258273 -77.955704 130.729031 -88.917272 C 118.199788 -99.87884 100.286982 -102.965578 83.771715 -100.911803 C 68.088895 -98.955249 54.253257 -91.979705 39.220597 -87.811393 C 25.093299 -83.892207 11.37311 -79.432234 -2.164791 -73.696247 C -31.695401 -61.197386 -59.512507 -44.651738 -84.607449 -24.685156 C -99.002103 -13.231412 -112.503546 -0.647483 -124.911264 12.939028 Z M -124.911264 12.939028 " stroke="#000000" stroke-width="3" stroke-opacity="1" stroke-miterlimit="10"/><path stroke-linecap="butt" transform="matrix(0.642871, 0, 0, 0.642871, 709.919035, 459.487941)" fill-opacity="1" fill="#000000" fill-rule="nonzero" stroke-linejoin="miter" d="M -14.141108 -74.081199 C -43.228152 -13.616363 -72.315195 46.842396 -101.396162 107.307232 C -108.225875 121.495293 -114.927987 138.885541 -106.390846 152.119629 C -99.968242 162.066462 -85.610046 165.566387 -74.97052 160.36511 C -67.806612 156.865186 -62.690404 150.327133 -57.829398 144.00175 C -25.667768 102.160642 6.493861 60.319535 38.655491 18.478428 C 56.550068 -4.80579 74.481103 -28.144694 89.847958 -53.166721 C 99.399834 -68.728016 108.088882 -85.328351 110.683444 -103.405216 C 114.930748 -132.996589 99.405911 -162.982918 67.232128 -164.429068 C 41.863755 -165.571404 25.336335 -142.268957 12.436441 -123.007222 C 2.094651 -107.561376 -6.10222 -90.796982 -14.141108 -74.081199 Z M -14.141108 -74.081199 " stroke="#000000" stroke-width="3" stroke-opacity="1" stroke-miterlimit="10"/><path stroke-linecap="round" transform="matrix(0.642871, 0, 0, 0.642871, 661.368789, 579.373119)" fill-opacity="1" fill="#fed766" fill-rule="nonzero" stroke-linejoin="round" d="M -26.938539 -11.420437 C -23.371776 -9.54895 -19.088015 -8.090648 -15.393651 -9.700857 C -11.261796 -11.505505 -9.110801 -16.658171 -4.748048 -17.806584 C -1.807139 -18.578268 1.230989 -17.265797 3.98961 -15.989783 C 14.635213 -11.043709 25.280815 -6.097636 35.926418 -1.157639 C 39.857756 0.671314 43.941001 2.615717 46.602402 6.03665 C 50.527664 11.061714 50.254232 18.900086 45.994776 23.645643 C 42.901961 27.084805 38.211091 28.761852 33.593135 29.114275 C 28.981256 29.460621 24.3633 28.622098 19.81826 27.747117 C 3.710102 24.636073 -12.331217 21.0207 -27.898588 15.843729 C -33.841168 13.862869 -39.966035 11.493129 -44.134347 6.820487 C -47.737568 2.779776 -49.511835 -2.622017 -50.022241 -8.011657 C -50.52657 -13.395221 -49.858182 -18.815242 -49.086497 -24.168425 C -48.746227 -26.501708 -47.688958 -29.460845 -45.33137 -29.381854 C -42.748961 -29.29071 -43.672552 -26.799444 -43.326205 -25.359372 C -42.882638 -23.530418 -40.300229 -21.507024 -38.993834 -20.224934 C -35.433147 -16.731086 -31.355978 -13.747644 -26.938539 -11.420437 Z M -26.938539 -11.420437 " stroke="#000000" stroke-width="3" stroke-opacity="1" stroke-miterlimit="4"/><path stroke-linecap="butt" transform="matrix(0.642871, 0, 0, 0.642871, 780.713295, 320.728715)" fill-opacity="1" fill="#f4f4f4" fill-rule="nonzero" stroke-linejoin="miter" d="M -60.371283 -19.344075 C -61.610839 -10.266147 -63.713224 -1.479879 -64.162867 7.464372 C -64.867713 21.64028 -56.798443 18.176813 -43.072178 17.040553 C -21.896422 15.284515 -0.763199 13.777603 20.066211 9.761197 C 30.906253 7.670965 47.871164 9.876646 57.2286 3.253526 C 63.256247 -1.012007 64.866455 -17.855392 58.352707 -21.6409 " stroke="#000000" stroke-width="3" stroke-opacity="1" stroke-miterlimit="10"/><path stroke-linecap="butt" transform="matrix(0.642871, 0, 0, 0.642871, 813.612853, 322.935678)" fill-opacity="1" fill="#000000" fill-rule="nonzero" stroke-linejoin="miter" d="M -36.56625 25.116005 C -36.56625 25.116005 46.076924 8.181476 46.076924 8.181476 C 52.098495 6.947996 45.165486 -26.878528 39.149991 -25.645048 C 39.149991 -25.645048 -43.49926 -8.710519 -43.49926 -8.710519 C -52.097164 -6.948404 -45.170231 26.87812 -36.56625 25.116005 Z M -36.56625 25.116005 " stroke="#000000" stroke-width="3" stroke-opacity="1" stroke-miterlimit="10"/><path stroke-linecap="butt" transform="matrix(0.642871, 0, 0, 0.642871, 791.02883, 317.603735)" fill-opacity="1" fill="#f7f3eb" fill-rule="nonzero" stroke-linejoin="miter" d="M -76.417324 -9.184604 C -78.30704 -20.030724 -63.918462 -19.003836 -56.675564 -19.927427 C -38.720224 -22.206024 -20.485376 -23.475961 -2.426739 -25.310991 C 9.762233 -26.550548 20.353149 -26.179896 30.798235 -31.204961 C 40.502018 -35.871526 43.880417 -33.076448 53.796869 -32.14678 C 62.370468 -31.338638 69.309554 -35.701391 73.897128 -26.052294 C 77.652255 -18.165313 78.296338 -4.147387 78.302414 4.602423 C 78.308491 13.06665 77.828466 21.780002 68.732309 24.447479 C 64.837428 25.595892 61.094454 26.06984 57.260336 27.285092 C 52.557313 28.773775 49.926293 27.831955 44.98022 28.34236 C 35.744309 29.28418 26.192432 35.876919 24.685521 22.539535 C 23.968522 16.177693 24.940723 10.004216 23.154304 3.806434 C 21.884366 -0.592777 18.335832 -4.165616 17.795045 -8.418996 " stroke="#000000" stroke-width="3" stroke-opacity="1" stroke-miterlimit="10"/><path stroke-linecap="butt" transform="matrix(0.642871, 0, 0, 0.642871, 638.561686, 231.699412)" fill-opacity="1" fill="#f7f3eb" fill-rule="nonzero" stroke-linejoin="miter" d="M 30.747128 -32.45359 C 24.992912 -22.40346 20.958277 -11.417587 18.69791 -0.073215 C 14.675427 20.093883 16.255254 41.391164 23.686517 60.573908 C 7.645198 58.137329 -7.697352 51.216472 -20.141527 40.801767 C -24.04856 37.538817 -27.827992 33.668241 -29.091854 28.740397 C -30.750672 22.287412 -27.773306 15.670368 -25.251659 9.509043 C -21.733506 0.959749 -18.962733 -7.911587 -16.957568 -16.940905 C -15.177225 -24.967641 -13.992354 -33.128054 -13.445491 -41.331002 C -13.062687 -46.793557 -14.284015 -56.454806 -7.405692 -58.690869 C -1.590713 -60.574508 6.041066 -50.305634 10.106082 -47.030531 C 11.187656 -46.15555 19.433137 -40.140055 25.169124 -36.111497 C 28.225481 -33.966578 30.570916 -32.392827 30.747128 -32.45359 Z M 30.747128 -32.45359 " stroke="#000000" stroke-width="3" stroke-opacity="1" stroke-miterlimit="10"/><path stroke-linecap="round" transform="matrix(0.642871, 0, 0, 0.642871, 646.785262, 217.378178)" fill-opacity="1" fill="#f4f4f4" fill-rule="nonzero" stroke-linejoin="round" d="M 17.955176 -10.176598 C 12.200961 -0.126468 8.166326 10.859405 5.905958 22.203777 C -0.626018 17.992931 -6.161489 12.256944 -10.117132 5.548756 C -11.830637 2.626076 -13.246405 -0.478891 -14.340131 -3.681079 C -15.288027 -6.476157 -15.986797 -9.356303 -16.442516 -12.278983 C -16.7281 -14.156546 -17.955504 -18.95679 -16.752405 -20.615608 C -15.610069 -22.207587 -10.724758 -20.001906 -9.078092 -19.58872 C -5.985277 -18.792731 -2.88031 -17.996741 0.218581 -17.200751 C 4.289674 -16.155635 8.366842 -15.116595 12.377172 -13.834505 C 15.433529 -11.689586 17.778965 -10.115835 17.955176 -10.176598 Z M 17.955176 -10.176598 " stroke="#000000" stroke-width="3" stroke-opacity="1" stroke-miterlimit="4"/><path stroke-linecap="round" transform="matrix(0.642871, 0, 0, 0.642871, 621.983303, 357.615352)" fill-opacity="1" fill="#fed766" fill-rule="nonzero" stroke-linejoin="round" d="M -46.657912 -134.288507 C -55.267968 -116.351395 -58.986638 -96.913448 -62.620239 -77.748933 C -67.153127 -53.814556 -71.686015 -29.880179 -76.218903 -5.951878 C -82.112873 25.146407 -88.025071 56.597114 -86.323719 87.604255 C -84.622367 118.611396 -74.517551 149.61246 -52.296678 170.253506 C -48.438255 173.838498 -43.382809 177.277659 -37.938483 175.886196 C -32.864808 174.585877 -29.571476 169.633728 -26.855389 165.131221 C -3.267359 125.969743 20.326748 86.814342 43.920855 47.652864 C 46.138689 43.970652 48.411209 40.130457 48.842623 35.992526 C 49.492783 29.746134 45.853105 24.234968 44.619624 18.219474 C 42.863586 9.633722 46.12046 0.355277 50.920703 -7.556009 C 55.720946 -15.473373 62.022025 -22.467145 67.271911 -30.123229 C 82.268114 -52.003831 88.028406 -79.346989 82.796749 -103.822153 C 77.559015 -128.297317 61.414399 -149.545989 39.272518 -161.096954 C 30.668538 -165.581231 21.317178 -168.601131 11.953666 -171.463048 C 5.233325 -173.5229 -1.851591 -177.278027 -9.082337 -174.586245 C -25.621909 -168.430996 -39.700597 -149.400158 -46.657912 -134.288507 Z M -46.657912 -134.288507 " stroke="#000000" stroke-width="3" stroke-opacity="1" stroke-miterlimit="4"/><path stroke-linecap="butt" transform="matrix(0.642871, 0, 0, 0.642871, 644.661886, 189.428067)" fill-opacity="1" fill="#f7f3eb" fill-rule="nonzero" stroke-linejoin="miter" d="M 47.215905 -16.099561 C 47.1916 -15.6803 47.167295 -15.279267 47.118685 -14.866081 C 46.650813 -8.595384 45.228969 -2.604194 46.644736 3.587512 C 47.695929 8.181163 49.518806 12.252255 50.624685 16.87021 C 53.456221 28.639921 50.375558 36.745648 42.342746 46.327905 C 25.292769 66.683367 -20.230551 74.436671 -38.380331 54.148049 C -48.867951 42.414796 -53.455525 24.884794 -53.406915 7.585689 C -53.38261 -4.335927 -51.164776 -16.154248 -47.160523 -25.900564 C -42.512186 -37.251013 -36.034896 -48.394869 -26.744298 -56.992773 C -20.58905 -62.680149 -2.597252 -74.437707 5.690763 -68.495128 C 13.784337 -68.640958 26.4108 -65.858032 36.272565 -57.557864 C 49.974525 -46.025128 48.096962 -31.867449 47.215905 -16.099561 Z M 47.215905 -16.099561 " stroke="#000000" stroke-width="3" stroke-opacity="1" stroke-miterlimit="10"/><path stroke-linecap="butt" transform="matrix(0.642871, 0, 0, 0.642871, 643.559326, 167.9401)" fill-opacity="1" fill="#000000" fill-rule="nonzero" stroke-linejoin="miter" d="M 48.930961 17.325441 C 48.906656 17.744702 48.882351 18.145735 48.833741 18.558921 C 43.091678 17.73255 37.774952 15.162293 33.102311 11.407166 C 29.887971 8.824757 27.007825 5.889925 25.05127 2.24417 C 24.3525 0.931699 21.861235 -1.802617 21.514888 -3.655876 C 21.217151 -3.090784 20.761432 -2.452777 20.506229 -2.015286 C 19.169453 0.293692 17.954201 2.365695 16.295383 4.443775 C 11.20348 10.793464 4.635045 15.739538 -1.641728 20.886127 C -9.595549 27.42418 -19.566687 30.796503 -29.31908 33.634115 C -36.713885 35.797263 -44.078309 39.534161 -51.691859 41.010691 C -51.667554 29.089075 -49.44972 17.270754 -45.445467 7.524438 C -40.79713 -3.826011 -34.31984 -14.975943 -25.029242 -23.56777 C -18.873994 -29.255147 -0.882196 -41.012705 7.405819 -35.076202 C 15.499393 -35.215956 28.125856 -32.43303 37.987621 -24.132862 C 51.689582 -12.600126 49.812018 1.557553 48.930961 17.325441 Z M 48.930961 17.325441 " stroke="#000000" stroke-width="3" stroke-opacity="1" stroke-miterlimit="10"/><path stroke-linecap="round" transform="matrix(0.642871, 0, 0, 0.642871, 639.385822, 158.261042)" fill-opacity="1" fill="#fed766" fill-rule="nonzero" stroke-linejoin="round" d="M 56.698951 -0.0840156 C 59.481877 -12.066395 55.53231 -24.686781 47.001245 -33.624956 C 38.470179 -42.56313 25.649277 -47.843397 12.305816 -48.724455 C -1.037645 -49.599436 -14.81252 -46.221037 -26.679451 -39.926034 C -35.54471 -35.229087 -43.486378 -28.855094 -49.058306 -21.053179 C -56.623246 -10.45011 -59.479087 2.322182 -59.065902 14.577993 C -58.859309 20.739318 -57.862803 26.821651 -56.392349 32.776384 C -55.171021 37.728533 -54.131981 45.658049 -50.765734 49.595464 C -44.598333 45.135491 -39.40921 39.25975 -33.241809 34.647871 C -26.971111 29.957 -20.329762 25.667163 -13.408905 21.820892 C 0.432809 14.134426 15.416859 8.210076 30.923468 4.351652 C 33.250674 3.768332 56.644265 0.152958 56.698951 -0.0840156 Z M 56.698951 -0.0840156 " stroke="#000000" stroke-width="3" stroke-opacity="1" stroke-miterlimit="4"/><path stroke-linecap="round" transform="matrix(0.642871, 0, 0, 0.642871, 652.313301, 165.428404)" fill-opacity="1" fill="#fed766" fill-rule="nonzero" stroke-linejoin="round" d="M -40.086316 16.705627 C -13.873342 2.377812 15.675497 -6.280854 45.552454 -8.401468 C 49.489869 -8.680976 53.560961 -8.875416 57.158105 -10.503853 C 63.92098 -13.572363 67.256845 -20.754499 70.003313 -27.329009 C 71.29148 -30.403595 72.415587 -34.328858 69.954703 -36.56492 C 68.733375 -37.676875 66.934803 -38.004993 65.233451 -38.235891 C 40.497008 -41.632519 14.618228 -35.252449 -7.444662 -23.282222 C -29.507552 -11.311995 -48.009755 5.96888 -63.686499 24.926803 C -67.283643 29.277403 -72.41808 35.85799 -70.783567 41.630434 C -68.590038 40.858749 -66.718551 37.012479 -65.114419 35.232135 C -62.805441 32.661878 -60.247337 30.298214 -57.543403 28.104685 C -52.171991 23.72978 -46.205107 20.047568 -40.086316 16.705627 Z M -40.086316 16.705627 " stroke="#000000" stroke-width="3" stroke-opacity="1" stroke-miterlimit="4"/><path stroke-linecap="butt" transform="matrix(0.642871, 0, 0, 0.642871, 606.27924, 197.179169)" fill-opacity="1" fill="#f7f3eb" fill-rule="nonzero" stroke-linejoin="miter" d="M 14.385628 -4.361947 C 11.949049 -10.334907 8.181769 -15.353896 1.546496 -15.925064 C -4.298863 -16.43547 -8.582624 -14.478915 -11.165034 -8.888758 C -14.38545 -1.931444 -9.682427 9.92941 -3.041078 13.538707 C 2.2878 16.431006 7.732126 15.458805 12.848335 12.627269 " stroke="#000000" stroke-width="3" stroke-opacity="1" stroke-miterlimit="10"/><path stroke-linecap="butt" transform="matrix(0.642871, 0, 0, 0.642871, 695.922499, 317.170434)" fill-opacity="1" fill="#f7f3eb" fill-rule="nonzero" stroke-linejoin="miter" d="M 111.364672 20.673668 C 111.364672 20.673668 -29.932614 51.340538 -29.932614 51.340538 C -33.991554 52.221595 -38.238858 51.547131 -41.82385 49.444746 C -41.82385 49.444746 -111.366614 8.72167 -111.366614 8.72167 C -111.366614 8.72167 -93.70901 -52.22319 -93.70901 -52.22319 C -93.70901 -52.22319 -30.327571 -1.869246 -30.327571 -1.869246 C 10.778309 -13.973151 54.64281 -21.185668 102.906522 -20.596271 " stroke="#000000" stroke-width="3" stroke-opacity="1" stroke-miterlimit="10"/><path stroke-linecap="round" transform="matrix(0.642871, 0, 0, 0.642871, 640.180414, 299.180952)" fill-opacity="1" fill="#fed766" fill-rule="nonzero" stroke-linejoin="round" d="M -49.32211 -29.550806 C -56.346263 -9.213573 -54.438319 13.778984 -45.451534 33.326304 C -36.46475 52.873623 -20.696862 68.987857 -2.042753 79.700299 C 9.003883 51.105432 29.930513 26.429752 56.344003 10.868457 C 36.450337 -3.009715 21.429829 -23.741904 14.429981 -46.971436 C 9.73911 -62.544883 1.712374 -79.698157 -16.352338 -69.356367 C -31.70704 -60.570099 -43.543589 -46.284819 -49.32211 -29.550806 Z M -49.32211 -29.550806 " stroke="#000000" stroke-width="3" stroke-opacity="1" stroke-miterlimit="4"/><path stroke-linecap="butt" transform="matrix(0.642871, 0, 0, 0.642871, 918.065936, 428.990158)" fill="none" stroke-linejoin="miter" d="M 8.404195 -0.00291998 C 8.404195 4.639341 4.642992 8.400544 0.000731429 8.400544 C -4.641529 8.400544 -8.402732 4.639341 -8.402732 -0.00291998 C -8.402732 -4.639104 -4.641529 -8.400307 0.000731429 -8.400307 C 4.642992 -8.400307 8.404195 -4.639104 8.404195 -0.00291998 Z M 8.404195 -0.00291998 " stroke="#000000" stroke-width="3" stroke-opacity="1" stroke-miterlimit="10"/><path stroke-linecap="butt" transform="matrix(0.642871, 0, 0, 0.642871, 918.065936, 454.776333)" fill="none" stroke-linejoin="miter" d="M 8.404195 0.00157206 C 8.404195 4.643833 4.642992 8.405036 0.000731429 8.405036 C -4.641529 8.405036 -8.402732 4.643833 -8.402732 0.00157206 C -8.402732 -4.640688 -4.641529 -8.401892 0.000731429 -8.401892 C 4.642992 -8.401892 8.404195 -4.640688 8.404195 0.00157206 Z M 8.404195 0.00157206 " stroke="#000000" stroke-width="3" stroke-opacity="1" stroke-miterlimit="10"/><path stroke-linecap="butt" transform="matrix(0.642871, 0, 0, 0.642871, 918.065936, 480.562532)" fill="none" stroke-linejoin="miter" d="M 8.404195 -0.0000495022 C 8.404195 4.642211 4.642992 8.403414 0.000731429 8.403414 C -4.641529 8.403414 -8.402732 4.642211 -8.402732 -0.0000495022 C -8.402732 -4.64231 -4.641529 -8.403513 0.000731429 -8.403513 C 4.642992 -8.403513 8.404195 -4.64231 8.404195 -0.0000495022 Z M 8.404195 -0.0000495022 " stroke="#000000" stroke-width="3" stroke-opacity="1" stroke-miterlimit="10"/><path stroke-linecap="butt" transform="matrix(0.642871, 0, 0, 0.642871, 918.065936, 506.348731)" fill="none" stroke-linejoin="miter" d="M 8.404195 -0.00167106 C 8.404195 4.640589 4.642992 8.401793 0.000731429 8.401793 C -4.641529 8.401793 -8.402732 4.640589 -8.402732 -0.00167106 C -8.402732 -4.643932 -4.641529 -8.405135 0.000731429 -8.405135 C 4.642992 -8.405135 8.404195 -4.643932 8.404195 -0.00167106 Z M 8.404195 -0.00167106 " stroke="#000000" stroke-width="3" stroke-opacity="1" stroke-miterlimit="10"/><path stroke-linecap="butt" transform="matrix(0.642871, 0, 0, 0.642871, 918.065936, 532.134905)" fill="none" stroke-linejoin="miter" d="M 8.404195 0.00282097 C 8.404195 4.639005 4.642992 8.400208 0.000731429 8.400208 C -4.641529 8.400208 -8.402732 4.639005 -8.402732 0.00282097 C -8.402732 -4.63944 -4.641529 -8.400643 0.000731429 -8.400643 C 4.642992 -8.400643 8.404195 -4.63944 8.404195 0.00282097 Z M 8.404195 0.00282097 " stroke="#000000" stroke-width="3" stroke-opacity="1" stroke-miterlimit="10"/><path stroke-linecap="butt" transform="matrix(0.642871, 0, 0, 0.642871, 943.051783, 428.990158)" fill="none" stroke-linejoin="miter" d="M 8.401906 -0.00291998 C 8.401906 4.639341 4.640703 8.400544 -0.0015579 8.400544 C -4.643818 8.400544 -8.405022 4.639341 -8.405022 -0.00291998 C -8.405022 -4.639104 -4.643818 -8.400307 -0.0015579 -8.400307 C 4.640703 -8.400307 8.401906 -4.639104 8.401906 -0.00291998 Z M 8.401906 -0.00291998 " stroke="#000000" stroke-width="3" stroke-opacity="1" stroke-miterlimit="10"/><path stroke-linecap="butt" transform="matrix(0.642871, 0, 0, 0.642871, 943.051783, 454.776333)" fill="none" stroke-linejoin="miter" d="M 8.401906 0.00157206 C 8.401906 4.643833 4.640703 8.405036 -0.0015579 8.405036 C -4.643818 8.405036 -8.405022 4.643833 -8.405022 0.00157206 C -8.405022 -4.640688 -4.643818 -8.401892 -0.0015579 -8.401892 C 4.640703 -8.401892 8.401906 -4.640688 8.401906 0.00157206 Z M 8.401906 0.00157206 " stroke="#000000" stroke-width="3" stroke-opacity="1" stroke-miterlimit="10"/><path stroke-linecap="butt" transform="matrix(0.642871, 0, 0, 0.642871, 943.051783, 480.562532)" fill="none" stroke-linejoin="miter" d="M 8.401906 -0.0000495022 C 8.401906 4.642211 4.640703 8.403414 -0.0015579 8.403414 C -4.643818 8.403414 -8.405022 4.642211 -8.405022 -0.0000495022 C -8.405022 -4.64231 -4.643818 -8.403513 -0.0015579 -8.403513 C 4.640703 -8.403513 8.401906 -4.64231 8.401906 -0.0000495022 Z M 8.401906 -0.0000495022 " stroke="#000000" stroke-width="3" stroke-opacity="1" stroke-miterlimit="10"/><path stroke-linecap="butt" transform="matrix(0.642871, 0, 0, 0.642871, 943.051783, 506.348731)" fill="none" stroke-linejoin="miter" d="M 8.401906 -0.00167106 C 8.401906 4.640589 4.640703 8.401793 -0.0015579 8.401793 C -4.643818 8.401793 -8.405022 4.640589 -8.405022 -0.00167106 C -8.405022 -4.643932 -4.643818 -8.405135 -0.0015579 -8.405135 C 4.640703 -8.405135 8.401906 -4.643932 8.401906 -0.00167106 Z M 8.401906 -0.00167106 " stroke="#000000" stroke-width="3" stroke-opacity="1" stroke-miterlimit="10"/><path stroke-linecap="butt" transform="matrix(0.642871, 0, 0, 0.642871, 943.051783, 532.134905)" fill="none" stroke-linejoin="miter" d="M 8.401906 0.00282097 C 8.401906 4.639005 4.640703 8.400208 -0.0015579 8.400208 C -4.643818 8.400208 -8.405022 4.639005 -8.405022 0.00282097 C -8.405022 -4.63944 -4.643818 -8.400643 -0.0015579 -8.400643 C 4.640703 -8.400643 8.401906 -4.63944 8.401906 0.00282097 Z M 8.401906 0.00282097 " stroke="#000000" stroke-width="3" stroke-opacity="1" stroke-miterlimit="10"/><path stroke-linecap="butt" transform="matrix(0.642871, 0, 0, 0.642871, 968.038206, 428.990158)" fill="none" stroke-linejoin="miter" d="M 8.404797 -0.00291998 C 8.404797 4.639341 4.643594 8.400544 0.00133305 8.400544 C -4.640927 8.400544 -8.402131 4.639341 -8.402131 -0.00291998 C -8.402131 -4.639104 -4.640927 -8.400307 0.00133305 -8.400307 C 4.643594 -8.400307 8.404797 -4.639104 8.404797 -0.00291998 Z M 8.404797 -0.00291998 " stroke="#000000" stroke-width="3" stroke-opacity="1" stroke-miterlimit="10"/><path stroke-linecap="butt" transform="matrix(0.642871, 0, 0, 0.642871, 968.038206, 454.776333)" fill="none" stroke-linejoin="miter" d="M 8.404797 0.00157206 C 8.404797 4.643833 4.643594 8.405036 0.00133305 8.405036 C -4.640927 8.405036 -8.402131 4.643833 -8.402131 0.00157206 C -8.402131 -4.640688 -4.640927 -8.401892 0.00133305 -8.401892 C 4.643594 -8.401892 8.404797 -4.640688 8.404797 0.00157206 Z M 8.404797 0.00157206 " stroke="#000000" stroke-width="3" stroke-opacity="1" stroke-miterlimit="10"/><path stroke-linecap="butt" transform="matrix(0.642871, 0, 0, 0.642871, 968.038206, 480.562532)" fill="none" stroke-linejoin="miter" d="M 8.404797 -0.0000495022 C 8.404797 4.642211 4.643594 8.403414 0.00133305 8.403414 C -4.640927 8.403414 -8.402131 4.642211 -8.402131 -0.0000495022 C -8.402131 -4.64231 -4.640927 -8.403513 0.00133305 -8.403513 C 4.643594 -8.403513 8.404797 -4.64231 8.404797 -0.0000495022 Z M 8.404797 -0.0000495022 " stroke="#000000" stroke-width="3" stroke-opacity="1" stroke-miterlimit="10"/><path stroke-linecap="butt" transform="matrix(0.642871, 0, 0, 0.642871, 968.038206, 506.348731)" fill="none" stroke-linejoin="miter" d="M 8.404797 -0.00167106 C 8.404797 4.640589 4.643594 8.401793 0.00133305 8.401793 C -4.640927 8.401793 -8.402131 4.640589 -8.402131 -0.00167106 C -8.402131 -4.643932 -4.640927 -8.405135 0.00133305 -8.405135 C 4.643594 -8.405135 8.404797 -4.643932 8.404797 -0.00167106 Z M 8.404797 -0.00167106 " stroke="#000000" stroke-width="3" stroke-opacity="1" stroke-miterlimit="10"/><path stroke-linecap="butt" transform="matrix(0.642871, 0, 0, 0.642871, 968.038206, 532.134905)" fill="none" stroke-linejoin="miter" d="M 8.404797 0.00282097 C 8.404797 4.639005 4.643594 8.400208 0.00133305 8.400208 C -4.640927 8.400208 -8.402131 4.639005 -8.402131 0.00282097 C -8.402131 -4.63944 -4.640927 -8.400643 0.00133305 -8.400643 C 4.643594 -8.400643 8.404797 -4.63944 8.404797 0.00282097 Z M 8.404797 0.00282097 " stroke="#000000" stroke-width="3" stroke-opacity="1" stroke-miterlimit="10"/><path stroke-linecap="butt" transform="matrix(0.642871, 0, 0, 0.642871, 993.0241, 428.990158)" fill="none" stroke-linejoin="miter" d="M 8.402433 -0.00291998 C 8.402433 4.639341 4.64123 8.400544 -0.00103094 8.400544 C -4.643291 8.400544 -8.404495 4.639341 -8.404495 -0.00291998 C -8.404495 -4.639104 -4.643291 -8.400307 -0.00103094 -8.400307 C 4.64123 -8.400307 8.402433 -4.639104 8.402433 -0.00291998 Z M 8.402433 -0.00291998 " stroke="#000000" stroke-width="3" stroke-opacity="1" stroke-miterlimit="10"/><path stroke-linecap="butt" transform="matrix(0.642871, 0, 0, 0.642871, 993.0241, 454.776333)" fill="none" stroke-linejoin="miter" d="M 8.402433 0.00157206 C 8.402433 4.643833 4.64123 8.405036 -0.00103094 8.405036 C -4.643291 8.405036 -8.404495 4.643833 -8.404495 0.00157206 C -8.404495 -4.640688 -4.643291 -8.401892 -0.00103094 -8.401892 C 4.64123 -8.401892 8.402433 -4.640688 8.402433 0.00157206 Z M 8.402433 0.00157206 " stroke="#000000" stroke-width="3" stroke-opacity="1" stroke-miterlimit="10"/><path stroke-linecap="butt" transform="matrix(0.642871, 0, 0, 0.642871, 993.0241, 480.562532)" fill="none" stroke-linejoin="miter" d="M 8.402433 -0.0000495022 C 8.402433 4.642211 4.64123 8.403414 -0.00103094 8.403414 C -4.643291 8.403414 -8.404495 4.642211 -8.404495 -0.0000495022 C -8.404495 -4.64231 -4.643291 -8.403513 -0.00103094 -8.403513 C 4.64123 -8.403513 8.402433 -4.64231 8.402433 -0.0000495022 Z M 8.402433 -0.0000495022 " stroke="#000000" stroke-width="3" stroke-opacity="1" stroke-miterlimit="10"/><path stroke-linecap="butt" transform="matrix(0.642871, 0, 0, 0.642871, 993.0241, 506.348731)" fill="none" stroke-linejoin="miter" d="M 8.402433 -0.00167106 C 8.402433 4.640589 4.64123 8.401793 -0.00103094 8.401793 C -4.643291 8.401793 -8.404495 4.640589 -8.404495 -0.00167106 C -8.404495 -4.643932 -4.643291 -8.405135 -0.00103094 -8.405135 C 4.64123 -8.405135 8.402433 -4.643932 8.402433 -0.00167106 Z M 8.402433 -0.00167106 " stroke="#000000" stroke-width="3" stroke-opacity="1" stroke-miterlimit="10"/><path stroke-linecap="butt" transform="matrix(0.642871, 0, 0, 0.642871, 993.0241, 532.134905)" fill="none" stroke-linejoin="miter" d="M 8.402433 0.00282097 C 8.402433 4.639005 4.64123 8.400208 -0.00103094 8.400208 C -4.643291 8.400208 -8.404495 4.639005 -8.404495 0.00282097 C -8.404495 -4.63944 -4.643291 -8.400643 -0.00103094 -8.400643 C 4.64123 -8.400643 8.402433 -4.63944 8.402433 0.00282097 Z M 8.402433 0.00282097 " stroke="#000000" stroke-width="3" stroke-opacity="1" stroke-miterlimit="10"/><path stroke-linecap="butt" transform="matrix(0.642871, 0, 0, 0.642871, 799.827806, 212.966786)" fill-opacity="1" fill="#f4f4f4" fill-rule="nonzero" stroke-linejoin="miter" d="M -1.652246 -36.442336 C -7.503681 -34.175892 -12.504441 -30.141257 -16.964414 -25.723818 C -26.388689 -16.390687 -33.83818 -5.07062 -38.674881 7.276335 C -40.12103 10.970699 -41.348434 15.029639 -40.285089 18.851605 C -39.051609 23.293349 -34.913678 26.416545 -30.538773 27.862694 C -26.157791 29.31492 -21.472997 29.399987 -16.879346 29.788868 C -8.257137 30.518019 0.267852 32.377353 8.410036 35.300033 C 13.064449 36.971004 17.6581 39.000474 22.555563 39.662786 C 27.459103 40.319022 32.879124 39.383278 36.348667 35.852973 C 41.349427 30.767145 40.6142 22.539893 39.350338 15.51574 C 36.573489 0.051665 32.751523 -15.612926 24.147542 -28.761947 C 18.235344 -37.803418 8.367502 -40.318988 -1.652246 -36.442336 Z M -1.652246 -36.442336 " stroke="#000000" stroke-width="3" stroke-opacity="1" stroke-miterlimit="10"/><path stroke-linecap="butt" transform="matrix(0.642871, 0, 0, 0.642871, 798.987566, 222.484492)" fill-opacity="1" fill="#000000" fill-rule="nonzero" stroke-linejoin="miter" d="M 6.204971 -22.409419 C 12.159703 -21.321769 18.509392 -20.039678 22.793153 -15.761993 C 23.370398 -15.190825 23.917261 -14.528513 24.063091 -13.732523 C 24.160311 -13.18566 24.057015 -12.626645 23.953719 -12.079781 C 21.626512 0.303631 18.308876 12.498679 14.049419 24.359533 C 2.619979 22.682486 -8.815537 20.999363 -20.244977 19.322316 C -21.004509 19.212943 -21.824803 19.067113 -22.335209 18.495945 C -22.784852 18.003768 -22.888148 17.298922 -22.961064 16.642687 C -24.158086 6.076075 -22.250141 -4.794349 -17.668643 -14.376607 C -15.736394 -18.405165 -14.217329 -22.494486 -9.672289 -23.363391 C -4.422403 -24.359897 1.028 -23.351239 6.204971 -22.409419 Z M 6.204971 -22.409419 " stroke="#000000" stroke-width="3" stroke-opacity="1" stroke-miterlimit="10"/><path stroke-linecap="butt" transform="matrix(0.642871, 0, 0, 0.642871, 839.417076, 185.649913)" fill-opacity="1" fill="#000000" fill-rule="nonzero" stroke-linejoin="miter" d="M -35.058616 -11.686938 C -35.678394 -10.489915 -36.304248 -9.256435 -36.407545 -7.919658 C -36.510841 -6.564653 -36.055122 -5.2218 -35.453572 -4.000473 C -32.944078 1.085355 -27.998005 4.445525 -23.21599 7.495806 C -8.268397 17.03553 7.845837 26.113458 25.533822 27.286176 C 26.518175 27.353015 27.58152 27.371244 28.395739 26.818304 C 29.051975 26.374737 29.428702 25.627358 29.781125 24.916436 C 31.749833 20.94864 33.71854 16.974767 35.687247 13.000895 C 36.094357 12.1806 36.507542 11.250933 36.221958 10.375952 C 35.960679 9.592115 35.207223 9.106014 34.502377 8.6746 C 21.70578 0.890915 8.818038 -6.746941 -4.179076 -14.196432 C -10.711053 -17.945483 -17.206572 -21.89505 -23.91476 -25.328135 C -27.906861 -27.369758 -27.815717 -25.692711 -29.760119 -21.931508 C -31.52831 -18.516651 -33.290425 -15.101794 -35.058616 -11.686938 Z M -35.058616 -11.686938 " stroke="#000000" stroke-width="3" stroke-opacity="1" stroke-miterlimit="10"/><path stroke-linecap="butt" transform="matrix(0.642871, 0, 0, 0.642871, 843.442764, 181.506618)" fill-opacity="1" fill="#f4f4f4" fill-rule="nonzero" stroke-linejoin="miter" d="M 25.536397 3.92712 C 12.581817 -11.743547 -7.354383 -21.416949 -27.679463 -21.890897 C -30.34694 -21.951659 -33.725339 -21.337957 -34.363346 -18.743396 C -34.746151 -17.19395 -33.901551 -15.626276 -32.984036 -14.325957 C -30.213263 -10.431076 -26.482441 -7.338261 -22.68478 -4.439886 C -12.44021 3.374181 -1.351041 10.088445 10.327526 15.538848 C 15.358667 17.890359 23.749978 21.949299 29.109237 18.449375 C 34.748003 14.773239 28.465153 7.469578 25.536397 3.92712 Z M 25.536397 3.92712 " stroke="#000000" stroke-width="3" stroke-opacity="1" stroke-miterlimit="10"/><path stroke-linecap="butt" transform="matrix(0.642871, 0, 0, 0.642871, 841.930044, 179.315065)" fill-opacity="1" fill="#fed766" fill-rule="nonzero" stroke-linejoin="miter" d="M 7.10259 -2.556019 C -0.201071 -6.614958 -8.136663 -10.193874 -16.491516 -10.127035 C -16.819634 -10.127035 -17.214591 -10.078425 -17.366498 -9.786765 C -17.518404 -9.489028 -17.323964 -9.142681 -17.117371 -8.881402 C -16.035797 -7.496016 -14.571419 -6.481281 -13.12527 -5.478698 C -5.402347 -0.149821 2.357033 5.203362 10.827336 9.244073 C 11.829919 9.724097 12.887187 10.191969 13.999142 10.17374 C 17.517295 10.119054 16.970432 6.193792 15.797714 4.170398 C 14.041676 1.150498 10.043499 -0.927582 7.10259 -2.556019 Z M 7.10259 -2.556019 " stroke="#000000" stroke-width="3" stroke-opacity="1" stroke-miterlimit="10"/><path stroke-linecap="butt" transform="matrix(0.642871, 0, 0, 0.642871, 784.175175, 160.385724)" fill-opacity="1" fill="#f4f4f4" fill-rule="nonzero" stroke-linejoin="miter" d="M -42.745526 10.987421 C -40.412243 18.692115 -32.002703 23.146011 -23.982044 23.826552 C -15.955308 24.501017 -8.01364 22.283183 -0.0719717 20.970711 C 7.47474 19.725078 15.149053 19.287588 22.647154 17.7746 C 26.979526 16.905695 31.384812 15.5993 34.744982 12.737383 C 38.408965 9.614186 40.420207 5.002307 42.000033 0.457267 C 43.500869 -3.8508 44.691815 -8.730034 42.723108 -12.837584 C 40.468817 -17.540607 34.92727 -19.545772 29.853595 -20.736718 C 16.455448 -23.896372 2.47398 -24.497922 -11.148989 -22.577824 C -20.792009 -21.222819 -36.16494 -19.72806 -40.059821 -9.270821 C -42.326265 -3.170259 -44.696005 4.528359 -42.745526 10.987421 Z M -42.745526 10.987421 " stroke="#000000" stroke-width="3" stroke-opacity="1" stroke-miterlimit="10"/><path stroke-linecap="butt" transform="matrix(0.642871, 0, 0, 0.642871, 785.386311, 150.519579)" fill-opacity="1" fill="#fed766" fill-rule="nonzero" stroke-linejoin="miter" d="M 38.323589 -17.372093 C 27.027827 -23.964833 13.368401 -26.012531 0.41382 -24.207883 C -12.546836 -22.403234 -24.826952 -16.916374 -35.569775 -9.448654 C -42.150362 -4.873232 -48.658033 1.257711 -49.466175 9.235837 C -49.684921 11.362527 -49.454023 13.574285 -48.530432 15.500458 C -47.697985 17.238268 -46.342979 18.678341 -44.84822 19.899668 C -39.616562 24.195582 -32.434426 26.012383 -25.780925 24.730293 C -16.757683 22.986407 -9.356801 16.041245 -0.284949 14.558638 C 5.499648 13.610742 11.369312 14.983976 17.178214 15.779966 C 21.759712 16.399744 26.383744 16.661023 31.007775 16.557727 C 34.738597 16.478736 38.676012 16.083779 41.708064 13.896326 C 44.205406 12.097754 45.797385 9.254066 46.678443 6.301005 C 49.680114 -3.797735 47.46228 -12.03714 38.323589 -17.372093 Z M 38.323589 -17.372093 " stroke="#000000" stroke-width="3" stroke-opacity="1" stroke-miterlimit="10"/><path stroke-linecap="butt" transform="matrix(0.642871, 0, 0, 0.642871, 785.309151, 155.464553)" fill-opacity="1" fill="#000000" fill-rule="nonzero" stroke-linejoin="miter" d="M -3.288122 -21.22999 C -0.590263 -17.67538 2.150129 -14.047854 3.614507 -9.830932 C 6.038933 -2.873617 4.690004 4.861458 2.119747 11.764086 C -0.456586 18.660638 -4.19956 25.077166 -6.757664 31.979794 C -6.867037 32.271454 -6.970333 32.581344 -6.885266 32.87908 C -6.788046 33.207198 -6.484233 33.425943 -6.186496 33.590002 C -3.318503 35.175905 0.430548 34.076103 2.861051 31.876498 C 5.285477 29.676893 6.689093 26.59623 8.025869 23.600635 C 10.559669 17.937564 13.129926 12.146891 13.761856 5.973413 C 14.199347 1.762567 13.713246 -2.502966 12.838265 -6.646973 C 10.73588 -16.630264 5.990323 -26.571021 -2.467827 -32.282702 C -4.867948 -33.898987 -7.869619 -35.175001 -10.603935 -34.221028 C -13.951953 -33.048311 -14.195003 -29.791437 -11.837415 -28.120466 C -10.597859 -27.239409 -8.902583 -27.105731 -7.577959 -26.072767 C -5.894836 -24.760296 -4.570212 -22.913114 -3.288122 -21.22999 Z M -3.288122 -21.22999 " stroke="#000000" stroke-width="3" stroke-opacity="1" stroke-miterlimit="10"/><path stroke-linecap="butt" transform="matrix(0.642871, 0, 0, 0.642871, 455.144095, 189.024342)" fill-opacity="1" fill="#f4f4f4" fill-rule="nonzero" stroke-linejoin="miter" d="M 29.270009 54.229189 C 29.270009 54.229189 37.381813 48.784863 37.381813 48.784863 C 37.381813 48.784863 -29.268653 -54.232002 -29.268653 -54.232002 C -29.268653 -54.232002 -37.380456 -48.787676 -37.380456 -48.787676 C -37.380456 -48.787676 29.270009 54.229189 29.270009 54.229189 Z M 29.270009 54.229189 " stroke="#000000" stroke-width="3" stroke-opacity="1" stroke-miterlimit="10"/><path stroke-linecap="butt" transform="matrix(0.642871, 0, 0, 0.642871, 448.544408, 195.900493)" fill-opacity="1" fill="#f4f4f4" fill-rule="nonzero" stroke-linejoin="miter" d="M 43.321476 43.363051 C 43.321476 43.363051 49.519258 35.737348 49.519258 35.737348 C 49.519258 35.737348 -43.319876 -43.363368 -43.319876 -43.363368 C -43.319876 -43.363368 -49.523735 -35.737665 -49.523735 -35.737665 C -49.523735 -35.737665 43.321476 43.363051 43.321476 43.363051 Z M 43.321476 43.363051 " stroke="#000000" stroke-width="3" stroke-opacity="1" stroke-miterlimit="10"/><path stroke-linecap="butt" transform="matrix(0.642871, 0, 0, 0.642871, 478.698918, 199.640708)" fill-opacity="1" fill="#f4f4f4" fill-rule="nonzero" stroke-linejoin="miter" d="M 40.6324 8.354725 C 38.347727 -7.947873 26.535483 -22.543043 11.788407 -27.2886 C -2.95867 -32.02808 -19.814207 -26.650593 -29.366084 -14.151732 C -38.924036 -1.658947 -40.637541 17.256442 -33.552625 32.027823 " stroke="#000000" stroke-width="3" stroke-opacity="1" stroke-miterlimit="10"/><path stroke-linecap="butt" transform="matrix(0.642871, 0, 0, 0.642871, 481.074294, 201.629131)" fill-opacity="1" fill="#f4f4f4" fill-rule="nonzero" stroke-linejoin="miter" d="M 30.879422 6.446559 C 28.260555 -7.72935 17.432665 -20.513795 4.174272 -22.853154 C -6.854135 -24.797556 -18.441558 -19.213476 -24.481357 -9.363863 C -30.521157 0.48575 -30.879656 14.060109 -25.660151 24.796855 " stroke="#000000" stroke-width="3" stroke-opacity="1" stroke-miterlimit="10"/><path stroke-linecap="butt" transform="matrix(0.642871, 0, 0, 0.642871, 482.71815, 203.049223)" fill-opacity="1" fill="#f4f4f4" fill-rule="nonzero" stroke-linejoin="miter" d="M 20.076887 7.014424 C 18.588204 -1.407268 14.061393 -9.579834 7.043316 -13.784604 C 0.0252384 -17.989374 -9.502333 -17.406054 -14.898049 -11.329796 C -18.154923 -7.659737 -19.649682 -2.470613 -19.862351 2.6699 C -20.081097 7.804338 -19.114972 12.950927 -18.003017 17.994221 " stroke="#000000" stroke-width="3" stroke-opacity="1" stroke-miterlimit="10"/><path stroke-linecap="butt" transform="matrix(0.642871, 0, 0, 0.642871, 482.501478, 204.752822)" fill-opacity="1" fill="#f4f4f4" fill-rule="nonzero" stroke-linejoin="miter" d="M 10.509626 5.178657 C 9.592111 1.235166 8.632063 -2.817698 6.420305 -6.153563 C 4.202471 -9.483352 0.40481 -11.962465 -3.265249 -11.221161 C -7.384952 -10.39479 -9.991666 -5.776835 -10.252945 -1.262176 C -10.508148 3.252483 -8.958702 7.688151 -7.433562 11.95976 " stroke="#000000" stroke-width="3" stroke-opacity="1" stroke-miterlimit="10"/><path stroke-linecap="butt" transform="matrix(0.642871, 0, 0, 0.642871, 466.013119, 216.661372)" fill-opacity="1" fill="#f4f4f4" fill-rule="nonzero" stroke-linejoin="miter" d="M 40.635831 8.352962 C 38.351158 -7.949636 26.538914 -22.544806 11.785761 -27.284287 C -2.961315 -32.029843 -19.816853 -26.652356 -29.368729 -14.153495 C -38.920605 -1.654634 -40.63411 17.254679 -33.55527 32.032137 " stroke="#000000" stroke-width="3" stroke-opacity="1" stroke-miterlimit="10"/><path stroke-linecap="butt" transform="matrix(0.642871, 0, 0, 0.642871, 468.388519, 218.649765)" fill-opacity="1" fill="#f4f4f4" fill-rule="nonzero" stroke-linejoin="miter" d="M 30.876739 6.45092 C 28.263949 -7.731064 17.429982 -20.515509 4.177665 -22.854868 C -6.856818 -24.799271 -18.438164 -19.21519 -24.477964 -9.365577 C -30.517764 0.490112 -30.876263 14.064471 -25.662834 24.801217 " stroke="#000000" stroke-width="3" stroke-opacity="1" stroke-miterlimit="10"/><path stroke-linecap="butt" transform="matrix(0.642871, 0, 0, 0.642871, 470.032375, 220.069886)" fill-opacity="1" fill="#f4f4f4" fill-rule="nonzero" stroke-linejoin="miter" d="M 20.080281 7.012665 C 18.591598 -1.409028 14.05871 -9.581594 7.040633 -13.786364 C 0.0225557 -17.991134 -9.505016 -17.407813 -14.900732 -11.331556 C -18.157606 -7.661497 -19.652365 -2.466297 -19.865034 2.668141 C -20.077703 7.802578 -19.117655 12.949168 -17.999623 17.992462 " stroke="#000000" stroke-width="3" stroke-opacity="1" stroke-miterlimit="10"/><path stroke-linecap="butt" transform="matrix(0.642871, 0, 0, 0.642871, 469.815079, 221.77413)" fill-opacity="1" fill="#f4f4f4" fill-rule="nonzero" stroke-linejoin="miter" d="M 10.507914 5.18197 C 9.590399 1.238479 8.63035 -2.820461 6.418593 -6.15025 C 4.206835 -9.480039 0.403098 -11.959152 -3.266961 -11.223925 C -7.386664 -10.391478 -9.993378 -5.773522 -10.248581 -1.264939 C -10.50986 3.24972 -8.954338 7.691464 -7.429197 11.963073 " stroke="#000000" stroke-width="3" stroke-opacity="1" stroke-miterlimit="10"/><path stroke-linecap="butt" transform="matrix(0.642871, 0, 0, 0.642871, 492.183149, 217.055459)" fill-opacity="1" fill="#f4f4f4" fill-rule="nonzero" stroke-linejoin="miter" d="M 42.297518 10.620097 C 39.599659 -7.936793 26.997502 -24.737644 11.521275 -30.406792 C -3.948876 -36.07594 -21.424192 -30.291343 -31.146203 -16.28557 C -40.874291 -2.279797 -42.296136 19.169391 -34.627899 36.079615 " stroke="#000000" stroke-width="3" stroke-opacity="1" stroke-miterlimit="10"/><path stroke-linecap="butt" transform="matrix(0.642871, 0, 0, 0.642871, 494.667173, 219.38393)" fill-opacity="1" fill="#f4f4f4" fill-rule="nonzero" stroke-linejoin="miter" d="M 32.132486 8.231591 C 29.130814 -7.919101 17.585926 -22.647949 3.719907 -25.558476 C -7.824982 -27.982902 -19.801285 -21.864111 -25.914 -10.793171 C -32.020638 0.27777 -32.130011 15.687158 -26.485168 27.979427 " stroke="#000000" stroke-width="3" stroke-opacity="1" stroke-miterlimit="10"/><path stroke-linecap="butt" transform="matrix(0.642871, 0, 0, 0.642871, 496.374005, 221.118393)" fill-opacity="1" fill="#f4f4f4" fill-rule="nonzero" stroke-linejoin="miter" d="M 20.934254 8.523114 C 19.220749 -1.071296 14.341514 -10.434809 6.940633 -15.350501 C -0.460248 -20.260117 -10.388853 -19.774016 -15.900018 -12.98076 C -19.223731 -8.873211 -20.688109 -3.009622 -20.809634 2.817508 C -20.937235 8.650715 -19.831356 14.508227 -18.573571 20.256367 " stroke="#000000" stroke-width="3" stroke-opacity="1" stroke-miterlimit="10"/><path stroke-linecap="butt" transform="matrix(0.642871, 0, 0, 0.642871, 496.140629, 223.117084)" fill-opacity="1" fill="#f4f4f4" fill-rule="nonzero" stroke-linejoin="miter" d="M 10.97979 6.15541 C 9.946826 1.658979 8.871329 -2.965052 6.495512 -6.793095 C 4.119696 -10.621137 0.109366 -13.507359 -3.700447 -12.74175 C -7.984209 -11.878922 -10.609152 -6.683722 -10.797516 -1.561437 C -10.979803 3.554772 -9.272375 8.628446 -7.601404 13.507681 " stroke="#000000" stroke-width="3" stroke-opacity="1" stroke-miterlimit="10"/><path stroke-linecap="round" transform="matrix(0.642871, 0, 0, 0.642871, 484.52331, 246.21739)" fill-opacity="1" fill="#fed766" fill-rule="nonzero" stroke-linejoin="round" d="M -65.137279 -19.867246 C -64.560035 -9.008974 -63.952409 1.995128 -60.586162 12.330841 C -57.219916 22.672631 -50.712244 32.443253 -41.032767 37.38325 C -30.314249 42.857958 -17.529804 41.709545 -5.632492 39.941354 C 8.300366 37.869351 22.136004 35.135035 35.801506 31.738407 C 43.743174 29.7697 52.079799 27.302739 57.542355 21.220406 C 65.204515 12.689341 64.803482 0.348462 63.685451 -10.303217 C 62.828698 -18.494012 63.162893 -30.992873 55.853155 -36.655944 C 47.856801 -42.853727 34.002934 -37.852967 25.222742 -36.443275 C 10.876699 -34.134298 -3.451116 -31.673413 -17.748549 -29.066699 C -21.843946 -28.325396 -65.204118 -21.137183 -65.137279 -19.867246 Z M -65.137279 -19.867246 " stroke="#000000" stroke-width="3" stroke-opacity="1" stroke-miterlimit="4"/><path fill="#fed766" d="M 422.375 512.109375 C 422.375 527.019531 410.289062 539.105469 395.382812 539.105469 C 380.476562 539.105469 368.390625 527.019531 368.390625 512.109375 C 368.390625 497.203125 380.476562 485.117188 395.382812 485.117188 C 410.289062 485.117188 422.375 497.203125 422.375 512.109375 Z M 422.375 512.109375 " fill-opacity="1" fill-rule="nonzero"/></svg>